<svg width="231" height="232" viewBox="0 0 231 232" fill="none" xmlns="http://www.w3.org/2000/svg">
<path d="M153.98 1.3501H76.8401C49.9901 1.3501 39.9001 4.1301 29.6201 10.1401C20.2801 15.7101 12.8201 24.0401 8.0701 34.3701C2.6901 45.8101 1.3501 56.6101 1.3501 80.6401V151.07C1.3501 175.1 2.6901 185.9 8.0701 197.34C12.8201 207.01 20.2801 215.34 29.6201 220.91C39.9001 226.92 49.9901 229.7 76.8401 229.7H153.98C180.83 229.7 190.92 226.92 201.2 220.91C210.54 215.34 218 207.01 222.75 197.34C228.13 185.9 229.47 175.1 229.47 151.07V80.6401C229.47 56.6101 228.13 45.8101 222.75 34.3701C218 24.7001 210.54 16.3701 201.2 10.8001C190.92 4.1301 180.83 1.3501 153.98 1.3501Z" fill="url(#paint0_linear_1234_84)" stroke="url(#paint1_linear_1234_84)" stroke-width="2.70012"/>
<path d="M152.3 3.37012H78.28C53.6 3.37012 44.27 5.94012 34.78 11.5201C26.2 16.6701 19.27 24.3401 14.87 33.7101C9.88002 44.1401 8.65002 54.1001 8.65002 76.1301V154.92C8.65002 176.95 9.88002 186.91 14.87 197.34C19.27 206.11 26.2 213.78 34.78 218.93C44.27 224.51 53.6 227.08 78.28 227.08H152.3C176.98 227.08 186.31 224.51 195.8 218.93C204.38 213.78 211.31 206.11 215.71 197.34C220.7 186.91 221.93 176.94 221.93 154.92V76.1301C221.93 54.1001 220.7 44.1401 215.71 33.7101C211.31 24.9401 204.38 17.2701 195.8 12.1201C186.31 5.94012 176.98 3.37012 152.3 3.37012Z" fill="#0A0A0C"/>
<path d="M195.42 43.0003C189.53 41.5603 186.12 37.8803 184.48 33.6103C183.55 31.1503 180.46 32.3803 179.94 34.9403C177.36 41.0503 174.16 45.1003 169.4 47.4503C167.35 48.3803 167.04 51.6503 168.99 52.0603C174.89 53.6103 178.2 56.9803 180.35 60.8703C181.58 63.1203 184.06 61.7903 184.68 59.3303C187.26 53.2103 190.98 49.7403 195.63 47.3903C197.68 46.4603 197.58 43.7103 195.42 43.0003Z" fill="url(#paint2_linear_1234_84)"/>
<path d="M138.043 61.9803C174.45 88.3256 195.247 136.854 178.782 159.608C162.316 182.363 128.035 187.147 91.6282 160.802C55.221 134.457 30.4735 86.9577 46.9394 64.2032C63.4052 41.4487 101.635 35.6349 138.043 61.9803Z" fill="#3B3B3D"/>
<path d="M170.052 98.5039C165.056 98.5039 163.66 103.119 163.66 105.776V120.619C163.66 147.902 142.043 168.839 114.461 168.839C87.44 168.839 67.6461 147.676 67.6461 120.619V105.649C67.6461 101.297 64.8353 98.649 61.0542 98.649C56.5025 98.649 54.29 102.775 54.29 106.402V121.517C54.29 150.468 75.308 175.73 105.121 182.15V193.157H92.291C87.44 193.157 86.0436 197.772 86.0436 199.613C86.0436 204.292 89.7068 207.003 92.427 206.949H139.169C143.53 206.949 146.06 202.832 145.924 199.613C145.788 195.488 142.56 193.157 139.305 193.157H126.475V182.431C154.057 177.679 175.946 154.277 175.946 122.224V105.513C175.946 101.668 173.588 98.5039 170.052 98.5039Z" fill="white"/>
<path d="M101.691 62.961C103.641 63.0608 105.164 63.7865 105.626 64.3849C103.096 64.784 101.836 66.7602 101.836 68.7276C101.836 71.9465 104.185 73.5782 106.271 73.5782C109.063 73.578 110.178 71.6109 110.314 70.4503C111.838 73.1976 112.662 76.5525 112.662 80.0069C112.662 88.2128 107.358 96.6094 100.839 96.6095C92.7238 96.6095 88.2902 87.2887 88.29 80.2706C88.29 70.9495 94.2653 62.6074 101.691 62.961Z" fill="#2A2623"/>
<path d="M131.955 62.9565C133.904 63.0473 135.427 63.7732 136.116 64.4985C133.995 65.0516 132.472 66.2574 132.472 68.5874C132.472 71.5796 134.684 73.2846 137.032 73.2847C139.961 73.2847 140.94 71.4616 141.448 70.1196C143.171 73.4291 143.996 76.467 143.996 80.3296C143.996 88.2634 138.166 96.9407 130.976 96.9409C122.87 96.9409 118.29 87.1939 118.29 80.602C118.29 72.3962 123.985 62.6664 131.955 62.9565Z" fill="#2E2A27"/>
<path d="M115.497 31.9502H115.361C91.9674 31.9502 76.29 52.678 76.29 72.7167V120.057C76.29 141.447 93.7627 159.944 115.361 159.944H115.497C137.24 159.944 155.955 140.921 155.955 120.057V72.7167C155.955 51.9979 139.861 31.9502 115.497 31.9502ZM100.826 96.3369C92.7109 96.3369 88.277 87.0158 88.277 79.9977C88.277 70.6765 94.2523 62.3346 101.678 62.6883C103.628 62.788 105.151 63.5134 105.614 64.1118C103.084 64.5108 101.823 66.4875 101.823 68.4551C101.823 71.6739 104.172 73.3061 106.257 73.3061C109.05 73.3061 110.165 71.3385 110.301 70.1778C111.825 72.9252 112.65 76.2801 112.65 79.7348C112.65 87.9406 107.345 96.3369 100.826 96.3369ZM130.993 96.609C122.887 96.609 118.308 86.8616 118.308 80.2697C118.308 72.0638 124.002 62.3346 131.972 62.6248C133.922 62.7155 135.445 63.4409 136.134 64.1662C134.012 64.7193 132.489 65.9253 132.489 68.2556C132.489 71.2478 134.701 72.9524 137.05 72.9524C139.979 72.9524 140.958 71.1299 141.466 69.788C143.188 73.0975 144.014 76.135 144.014 79.9977C144.014 87.9316 138.183 96.609 130.993 96.609Z" fill="white"/>
<defs>
<linearGradient id="paint0_linear_1234_84" x1="115.41" y1="-0.0011024" x2="115.41" y2="231.051" gradientUnits="userSpaceOnUse">
<stop stop-color="#040404"/>
<stop offset="1" stop-color="#121212"/>
</linearGradient>
<linearGradient id="paint1_linear_1234_84" x1="115.41" y1="-0.0011024" x2="115.41" y2="231.051" gradientUnits="userSpaceOnUse">
<stop stop-color="#3E3E40"/>
<stop offset="1" stop-color="#323232"/>
</linearGradient>
<linearGradient id="paint2_linear_1234_84" x1="182.897" y1="32.0765" x2="182.897" y2="61.9136" gradientUnits="userSpaceOnUse">
<stop stop-color="#F9F9F9"/>
<stop offset="1" stop-color="#E6E6E6"/>
</linearGradient>
</defs>
</svg>
